{"accessors" : [{"bufferView" : 0, "byteOffset" : 0, "componentType" : 5123, "count" : 3312, "type" : "SCALAR", "max" : [3311], "min" : [0]}, {"bufferView" : 1, "byteOffset" : 0, "componentType" : 5126, "count" : 3312, "type" : "VEC3", "max" : [0.38703057169914246, 0.8921700716018677, 0.3249478042125702], "min" : [-0.38703057169914246, -0.19426488876342773, -0.32494792342185974], "name" : "POSITION"}, {"bufferView" : 1, "byteOffset" : 12, "componentType" : 5126, "count" : 3312, "type" : "VEC3", "max" : [1.0000027418136597, 1.0000044107437134, 1.0000041723251343], "min" : [-1.0000027418136597, -1.0000044107437134, -1.0000041723251343], "name" : "NORMAL"}, {"bufferView" : 1, "byteOffset" : 24, "componentType" : 5126, "count" : 3312, "type" : "VEC2", "max" : [0.9168629050254822, 0.9999257922172546], "min" : [-1.4901161193847656E-08, 0.01809513568878174], "name" : "TEXCOORD_0"}, {"bufferView" : 0, "byteOffset" : 6624, "componentType" : 5123, "count" : 3264, "type" : "SCALAR", "max" : [3263], "min" : [0]}, {"bufferView" : 2, "byteOffset" : 0, "componentType" : 5126, "count" : 3264, "type" : "VEC3", "max" : [5.8629021644592285, 2.9277772903442383, 1], "min" : [-1, -5.785823822021484, -1.071030616760254], "name" : "POSITION"}, {"bufferView" : 2, "byteOffset" : 12, "componentType" : 5126, "count" : 3264, "type" : "VEC3", "max" : [0.9998772740364075, 1.0000044107437134, 0.999979555606842], "min" : [-0.9998772740364075, -0.9973504543304443, -0.9993797540664673], "name" : "NORMAL"}, {"bufferView" : 2, "byteOffset" : 24, "componentType" : 5126, "count" : 3264, "type" : "VEC2", "max" : [0.9872559905052185, 0.999923586845398], "min" : [0, 0.026238322257995605], "name" : "TEXCOORD_0"}, {"bufferView" : 0, "byteOffset" : 13152, "componentType" : 5123, "count" : 8688, "type" : "SCALAR", "max" : [8687], "min" : [0]}, {"bufferView" : 3, "byteOffset" : 0, "componentType" : 5126, "count" : 8688, "type" : "VEC3", "max" : [0.9226716756820679, 0.9827682971954346, 1.1849619150161743], "min" : [-0.9226715564727783, 0.019372224807739258, -0.4349333941936493], "name" : "POSITION"}, {"bufferView" : 3, "byteOffset" : 12, "componentType" : 5126, "count" : 8688, "type" : "VEC3", "max" : [1.0000044107437134, 0.999944806098938, 1.0000044107437134], "min" : [-1.0000044107437134, -1.0000042915344238, -1.0000044107437134], "name" : "NORMAL"}, {"bufferView" : 3, "byteOffset" : 24, "componentType" : 5126, "count" : 8688, "type" : "VEC2", "max" : [0.9976941347122192, 1], "min" : [0, 0], "name" : "TEXCOORD_0"}, {"bufferView" : 0, "byteOffset" : 30528, "componentType" : 5123, "count" : 4920, "type" : "SCALAR", "max" : [4919], "min" : [0]}, {"bufferView" : 4, "byteOffset" : 0, "componentType" : 5126, "count" : 4920, "type" : "VEC3", "max" : [4.753056526184082, 4.014523506164551, 0.635590672492981], "min" : [-4.753055572509766, 3.6158711910247803, -0.37791311740875244], "name" : "POSITION"}, {"bufferView" : 4, "byteOffset" : 12, "componentType" : 5126, "count" : 4920, "type" : "VEC3", "max" : [0.9809079170227051, 0.9998326897621155, 0.9991746544837952], "min" : [-0.9809004068374634, -0.9999842047691345, -0.9998142719268799], "name" : "NORMAL"}, {"bufferView" : 4, "byteOffset" : 24, "componentType" : 5126, "count" : 4920, "type" : "VEC2", "max" : [0.9938104152679443, 0.9999459385871887], "min" : [0, 0.059532880783081055], "name" : "TEXCOORD_0"}, {"bufferView" : 0, "byteOffset" : 40368, "componentType" : 5123, "count" : 420, "type" : "SCALAR", "max" : [419], "min" : [0]}, {"bufferView" : 5, "byteOffset" : 0, "componentType" : 5126, "count" : 420, "type" : "VEC3", "max" : [0.9803144931793213, 4.797756671905518, 1.531731367111206], "min" : [-0.9803144931793213, 4.109891414642334, 1.4934529066085815], "name" : "POSITION"}, {"bufferView" : 5, "byteOffset" : 12, "componentType" : 5126, "count" : 420, "type" : "VEC3", "max" : [1.0000044107437134, 1.0000044107437134, 1.0000044107437134], "min" : [-1.0000044107437134, -1.0000044107437134, -1.0000044107437134], "name" : "NORMAL"}, {"bufferView" : 5, "byteOffset" : 24, "componentType" : 5126, "count" : 420, "type" : "VEC2", "max" : [0.9587146043777466, 0.9999175071716309], "min" : [0.038378700613975525, 0.03988492488861084], "name" : "TEXCOORD_0"}, {"bufferView" : 0, "byteOffset" : 41208, "componentType" : 5123, "count" : 36, "type" : "SCALAR", "max" : [35], "min" : [0]}, {"bufferView" : 6, "byteOffset" : 0, "componentType" : 5126, "count" : 36, "type" : "VEC3", "max" : [0.6555556058883667, 0.18201279640197754, 0.559999942779541], "min" : [-0.6555556058883667, -0.1311347484588623, 0.5], "name" : "POSITION"}, {"bufferView" : 6, "byteOffset" : 12, "componentType" : 5126, "count" : 36, "type" : "VEC3", "max" : [0.8955927491188049, 1.0000044107437134, 1.0000044107437134], "min" : [-0.8955927491188049, -1.0000044107437134, -1.0000044107437134], "name" : "NORMAL"}, {"bufferView" : 6, "byteOffset" : 24, "componentType" : 5126, "count" : 36, "type" : "VEC2", "max" : [0.9989499449729919, 0.9999175071716309], "min" : [0.021930664777755737, 0.14360928535461426], "name" : "TEXCOORD_0"}], "asset" : {"generator" : "Aspose.3D 24.9.1", "version" : "2.0"}, "buffers" : [{"uri" : "data:application/octet-stream;base64,", "byteLength" : 701788}], "bufferViews" : [{"buffer" : 0, "byteOffset" : 0, "byteLength" : 41280, "target" : 34963}, {"buffer" : 0, "byteOffset" : 41284, "byteLength" : 105984, "byteStride" : 32, "target" : 34962}, {"buffer" : 0, "byteOffset" : 147272, "byteLength" : 104448, "byteStride" : 32, "target" : 34962}, {"buffer" : 0, "byteOffset" : 251724, "byteLength" : 278016, "byteStride" : 32, "target" : 34962}, {"buffer" : 0, "byteOffset" : 529744, "byteLength" : 157440, "byteStride" : 32, "target" : 34962}, {"buffer" : 0, "byteOffset" : 687188, "byteLength" : 13440, "byteStride" : 32, "target" : 34962}, {"buffer" : 0, "byteOffset" : 700632, "byteLength" : 1152, "byteStride" : 32, "target" : 34962}], "materials" : [{"name" : "GarlicV7_GoblinDone:cuerpoBlinn", "pbrMetallicRoughness" : {"baseColorFactor" : [0.4106999933719635, 0.4106999933719635, 0.4106999933719635, 1], "metallicFactor" : 1, "roughnessFactor" : 1}, "emissiveFactor" : [0, 0, 0], "alphaMode" : "OPAQUE", "doubleSided" : false}, {"name" : "GarlicV7_GoblinDone:piernas_blinn", "pbrMetallicRoughness" : {"baseColorFactor" : [0.4106999933719635, 0.4106999933719635, 0.4106999933719635, 1], "metallicFactor" : 1, "roughnessFactor" : 1}, "emissiveFactor" : [0, 0, 0], "alphaMode" : "OPAQUE", "doubleSided" : false}, {"name" : "GarlicV7_GoblinDone:blinn_zapatilla", "pbrMetallicRoughness" : {"baseColorFactor" : [0.39309999346733093, 0.4106999933719635, 0.10459999740123749, 1], "metallicFactor" : 1, "roughnessFactor" : 1}, "emissiveFactor" : [0, 0, 0], "alphaMode" : "OPAQUE", "doubleSided" : false}, {"name" : "GarlicV7_GoblinDone:brazos_blinn2", "pbrMetallicRoughness" : {"baseColorFactor" : [1, 1, 1, 1], "metallicFactor" : 1, "roughnessFactor" : 1}, "emissiveFactor" : [0, 0, 0], "alphaMode" : "OPAQUE", "doubleSided" : false}, {"name" : "GarlicV7_GoblinDone:lentes_blinn", "pbrMetallicRoughness" : {"baseColorFactor" : [0, 0, 0, 1], "metallicFactor" : 1, "roughnessFactor" : 1}, "emissiveFactor" : [0, 0, 0], "alphaMode" : "OPAQUE", "doubleSided" : false}, {"name" : "GarlicV7_GoblinDone:bigoteBlinn", "pbrMetallicRoughness" : {"baseColorFactor" : [0.2071000039577484, 0.12150000035762787, 0.0568000003695488, 1], "metallicFactor" : 1, "roughnessFactor" : 1}, "emissiveFactor" : [0, 0, 0], "alphaMode" : "OPAQUE", "doubleSided" : false}], "meshes" : [{"primitives" : [{"attributes" : {"POSITION" : 1, "NORMAL" : 2, "TEXCOORD_0" : 3}, "indices" : 0, "material" : 0, "mode" : 4}], "name" : ""}, {"primitives" : [{"attributes" : {"POSITION" : 5, "NORMAL" : 6, "TEXCOORD_0" : 7}, "indices" : 4, "material" : 1, "mode" : 4}], "name" : ""}, {"primitives" : [{"attributes" : {"POSITION" : 9, "NORMAL" : 10, "TEXCOORD_0" : 11}, "indices" : 8, "material" : 2, "mode" : 4}], "name" : ""}, {"primitives" : [{"attributes" : {"POSITION" : 13, "NORMAL" : 14, "TEXCOORD_0" : 15}, "indices" : 12, "material" : 3, "mode" : 4}], "name" : ""}, {"primitives" : [{"attributes" : {"POSITION" : 17, "NORMAL" : 18, "TEXCOORD_0" : 19}, "indices" : 16, "material" : 4, "mode" : 4}], "name" : ""}, {"primitives" : [{"attributes" : {"POSITION" : 21, "NORMAL" : 22, "TEXCOORD_0" : 23}, "indices" : 20, "material" : 5, "mode" : 4}], "name" : ""}], "nodes" : [{"matrix" : [4.893637926032626, 0, 0, 0, 0, 4.893637926032626, 0, 0, 0, 0, 4.893637926032626, 0, 0, 3.625299974060378, 0, 1], "mesh" : 0, "name" : "GarlicV7_GoblinDone:Cuerpo"}, {"matrix" : [0.26261272403309993, 0, 0, 0, 0, 0.26261272403309993, 0, 0, 0, 0, 0.26261272403309993, 0, -0.6385299833189341, 2.0597716469053022, 0.03575962588307008, 1], "mesh" : 1, "name" : "GarlicV7_GoblinDone:Pierna"}, {"mesh" : 2, "name" : "GarlicV7_GoblinDone:Zapatilla"}, {"mesh" : 3, "name" : "GarlicV7_GoblinDone:Brazos"}, {"mesh" : 4, "name" : "GarlicV7_GoblinDone:Lentes"}, {"matrix" : [1, 0, 0, 0, 0, 1, 0, 0, 0, 0, 1, 0, 0, 3.7561709502652647, 1.072668486086432, 1], "mesh" : 5, "name" : "GarlicV7_GoblinDone:Bigote"}, {"children" : [0, 1, 2, 3, 4, 5], "name" : "GarlicV7_GoblinDone:Ajo"}], "scene" : 0, "scenes" : [{"nodes" : [6]}]}