{
    "asset": {
        "version": "2.0",
        "generator": "Open Asset Import Library (assimp v5.4.0)"
    },
    "extensionsUsed": [
        "KHR_materials_volume",
        "FB_ngon_encoding"
    ],
    "accessors": [
        {
            "bufferView": 0,
            "byteOffset": 0,
            "componentType": 5126,
            "count": 899840,
            "type": "VEC3",
            "max": [
                156.18284606933594,
                129.34906005859375,
                116.24539184570313
            ],
            "min": [
                -0.00000476837158203125,
                0.0000013113021850585938,
                0.0
            ]
        },
        {
            "bufferView": 1,
            "byteOffset": 0,
            "componentType": 5126,
            "count": 899840,
            "type": "VEC3",
            "max": [
                0.9999982118606567,
                0.999998927116394,
                0.9999972581863403
            ],
            "min": [
                -0.9999978542327881,
                -1.0,
                -0.9999970197677612
            ]
        },
        {
            "bufferView": 2,
            "byteOffset": 0,
            "componentType": 5125,
            "count": 900066,
            "type": "SCALAR",
            "max": [
                899839
            ],
            "min": [
                0
            ]
        }
    ],
    "buffers": [
        {
            "byteLength": 25196424,
            "uri": "Pikasaur_0.bin"
        }
    ],
    "bufferViews": [
        {
            "buffer": 0,
            "byteOffset": 0,
            "byteLength": 10798080,
            "target": 34962
        },
        {
            "buffer": 0,
            "byteOffset": 10798080,
            "byteLength": 10798080,
            "target": 34962
        },
        {
            "buffer": 0,
            "byteOffset": 21596160,
            "byteLength": 3600264,
            "target": 34963
        }
    ],
    "materials": [
        {
            "name": "Mat_1"
        }
    ],
    "meshes": [
        {
            "name": "meshes[0]",
            "primitives": [
                {
                    "mode": 4,
                    "material": 0,
                    "indices": 2,
                    "attributes": {
                        "POSITION": 0,
                        "NORMAL": 1
                    }
                }
            ]
        }
    ],
    "nodes": [
        {
            "name": "Pikasaur",
            "children": [
                1
            ]
        },
        {
            "name": "mesh_0",
            "mesh": 0
        }
    ],
    "scenes": [
        {
            "nodes": [
                0
            ]
        }
    ],
    "scene": 0
}